<svg width="160" height="188" viewBox="0 0 160 188" fill="none" xmlns="http://www.w3.org/2000/svg">
    <g clip-path="url(#clip0)">
        <path d="M0 45.7766L80 76.2531L160 45.7766V158.407L80 188L0 158.407V45.7766Z" fill="#DADADA"/>
        <path d="M56.7956 55.4938C60.3351 55.4938 63.2044 52.6264 63.2044 49.0893C63.2044 45.5522 60.3351 42.6848 56.7956 42.6848C53.2561 42.6848 50.3867 45.5522 50.3867 49.0893C50.3867 52.6264 53.2561 55.4938 56.7956 55.4938Z" fill="#DADADA"/>
        <path d="M102.762 55.4938C106.302 55.4938 109.171 52.6264 109.171 49.0893C109.171 45.5522 106.302 42.6848 102.762 42.6848C99.2229 42.6848 96.3535 45.5522 96.3535 49.0893C96.3535 52.6264 99.2229 55.4938 102.762 55.4938Z" fill="#DADADA"/>
        <path d="M78.2323 39.1511V59.0271H72.0444V66.0941H85.3041V39.1511H78.2323Z" fill="#DADADA"/>
        <path d="M121.547 20.1587C121.547 20.1587 95.0274 38.7096 57.0164 24.5756C41.5468 44.8932 27.1821 46.8808 27.1821 46.8808C27.1821 46.8808 30.718 16.8461 59.4473 4.4788C88.1766 -7.88845 112.486 8.01231 121.547 20.1587Z" fill="#DADADA"/>
    </g>
    <defs>
        <clipPath id="clip0">
            <rect width="160" height="188" fill="white"/>
        </clipPath>
    </defs>
</svg>
