<svg width="13" height="16" viewBox="0 0 13 16" fill="none" xmlns="http://www.w3.org/2000/svg">
    <path d="M2.40203 0H0.343147C0.153632 0 0 0.153632 0 0.343147V15.4416C0 15.6311 0.153632 15.7848 0.343147 15.7848H2.40203C2.59155 15.7848 2.74518 15.6311 2.74518 15.4416V0.343147C2.74518 0.153632 2.59155 0 2.40203 0Z" fill="black"/>
    <path d="M5.83349 0H3.7746C3.58509 0 3.43146 0.153632 3.43146 0.343147V15.4416C3.43146 15.6311 3.58509 15.7848 3.7746 15.7848H5.83349C6.023 15.7848 6.17664 15.6311 6.17664 15.4416V0.343147C6.17664 0.153632 6.023 0 5.83349 0Z" fill="black"/>
    <path d="M8.49779 0.579167L6.68658 1.06478C6.50351 1.11387 6.39489 1.30206 6.44398 1.48514L10.2468 15.6685C10.2959 15.8516 10.4841 15.9602 10.6671 15.9111L12.4783 15.4255C12.6614 15.3764 12.77 15.1882 12.7209 15.0051L8.91815 0.821772C8.86906 0.638701 8.68086 0.530083 8.49779 0.579167Z" fill="black"/>
</svg>
