<svg width="24" height="15" viewBox="0 0 24 15" fill="none" xmlns="http://www.w3.org/2000/svg">
    <path fill-rule="evenodd" clip-rule="evenodd" d="M0.288288 1.82225C0.192192 1.70887 0.12012 1.59143 0.0720721 1.46995C0.0240238 1.34846 0 1.20674 0 1.04476C0 0.898976 0.0240238 0.761297 0.0720721 0.631714C0.12012 0.502131 0.192192 0.388747 0.288288 0.29156C0.384385 0.194373 0.496496 0.121484 0.624625 0.07289C0.752753 0.0242964 0.888888 0 1.03303 0H22.967C23.1111 0 23.2472 0.0242964 23.3754 0.07289C23.5035 0.121484 23.6156 0.194373 23.7117 0.29156C23.8078 0.388747 23.8799 0.502131 23.9279 0.631714C23.976 0.761297 24 0.898976 24 1.04476C24 1.20674 23.976 1.34846 23.9279 1.46995C23.8799 1.59143 23.8078 1.70887 23.7117 1.82225C23.6156 1.91944 23.5035 1.99233 23.3754 2.04092C23.2472 2.08951 23.1111 2.11381 22.967 2.11381H1.03303C0.888888 2.11381 0.752753 2.08951 0.624625 2.04092C0.496496 1.99233 0.384385 1.91944 0.288288 1.82225ZM0.288288 7.93606C0.192192 7.82268 0.12012 7.70524 0.0720721 7.58376C0.0240238 7.46228 0 7.32055 0 7.15857C0 7.01279 0.0240238 6.87511 0.0720721 6.74552C0.12012 6.61594 0.192192 6.50256 0.288288 6.40537C0.384385 6.30818 0.496496 6.23529 0.624625 6.1867C0.752753 6.13811 0.888888 6.11381 1.03303 6.11381H22.967C23.1111 6.11381 23.2472 6.13811 23.3754 6.1867C23.5035 6.23529 23.6156 6.30818 23.7117 6.40537C23.8078 6.50256 23.8799 6.61594 23.9279 6.74552C23.976 6.87511 24 7.01279 24 7.15857C24 7.32055 23.976 7.46228 23.9279 7.58376C23.8799 7.70524 23.8078 7.82268 23.7117 7.93606C23.6156 8.03325 23.5035 8.10614 23.3754 8.15473C23.2472 8.20333 23.1111 8.22762 22.967 8.22762H1.03303C0.888888 8.22762 0.752753 8.20333 0.624625 8.15473C0.496496 8.10614 0.384385 8.03325 0.288288 7.93606ZM0.0720721 13.6976C0.12012 13.8191 0.192192 13.9365 0.288288 14.0499C0.384385 14.1471 0.496496 14.2199 0.624625 14.2685C0.752753 14.3171 0.888888 14.3414 1.03303 14.3414H22.967C23.1111 14.3414 23.2472 14.3171 23.3754 14.2685C23.5035 14.2199 23.6156 14.1471 23.7117 14.0499C23.8078 13.9365 23.8799 13.8191 23.9279 13.6976C23.976 13.5761 24 13.4344 24 13.2724C24 13.1266 23.976 12.9889 23.9279 12.8593C23.8799 12.7298 23.8078 12.6164 23.7117 12.5192C23.6156 12.422 23.5035 12.3491 23.3754 12.3005C23.2472 12.2519 23.1111 12.2276 22.967 12.2276H1.03303C0.888888 12.2276 0.752753 12.2519 0.624625 12.3005C0.496496 12.3491 0.384385 12.422 0.288288 12.5192C0.192192 12.6164 0.12012 12.7298 0.0720721 12.8593C0.0240238 12.9889 0 13.1266 0 13.2724C0 13.4344 0.0240238 13.5761 0.0720721 13.6976Z" fill="#000"/>
</svg>
