<svg width="23" height="22" viewBox="0 0 23 22" fill="none" xmlns="http://www.w3.org/2000/svg">
<path d="M12.4079 13.6757C11.0312 13.6757 9.68548 13.2746 8.54083 12.5233C7.39617 11.7719 6.50402 10.704 5.9772 9.45457C5.45037 8.20512 5.31253 6.83026 5.5811 5.50384C5.84968 4.17743 6.5126 2.95905 7.48605 2.00276C8.4595 1.04647 9.69975 0.39523 11.05 0.13139C12.4002 -0.132449 13.7997 0.00296276 15.0716 0.520503C16.3434 1.03804 17.4305 1.91447 18.1954 3.03894C18.9602 4.16342 19.3684 5.48544 19.3684 6.83784C19.3662 8.65067 18.6321 10.3886 17.3272 11.6705C16.0224 12.9524 14.2532 13.6735 12.4079 13.6757ZM12.4079 2.27789C11.4903 2.27825 10.5935 2.54583 9.83075 3.04683C9.068 3.54782 8.47357 4.25973 8.1226 5.09255C7.77164 5.92537 7.67991 6.84172 7.859 7.72575C8.03809 8.60978 8.47997 9.4218 9.12877 10.0592C9.77756 10.6965 10.6042 11.1306 11.504 11.3065C12.4039 11.4825 13.3367 11.3924 14.1845 11.0476C15.0323 10.7028 15.7569 10.1189 16.2669 9.36955C16.7769 8.62024 17.0493 7.73921 17.0497 6.83784C17.049 5.62866 16.5598 4.46919 15.6894 3.61417C14.819 2.75915 13.6388 2.27853 12.4079 2.27789Z" fill="#EC111D"/>
<path d="M23 22H20.6964C20.6929 20.8632 20.4517 19.7393 19.9877 18.6979C19.5236 17.6566 18.8466 16.72 17.9987 15.9464C16.2407 14.3215 13.9138 13.4233 11.5 13.4378C6.42608 13.4378 2.3 17.2777 2.3 22H0C0 16.0975 5.15866 11.2973 11.5 11.2973C17.8413 11.2973 22.9939 16.0969 22.9939 21.9964L23 22Z" fill="#EC111D"/>
</svg>
