<svg width="31" height="31" viewBox="0 0 31 31" fill="none" xmlns="http://www.w3.org/2000/svg">
    <path fill-rule="evenodd" clip-rule="evenodd" d="M15.7935 0C7.4914 0 0.76123 6.73017 0.76123 15.0323C0.76123 23.3343 7.4914 30.0645 15.7935 30.0645C24.0956 30.0645 30.8257 23.3343 30.8257 15.0323C30.8257 6.73017 24.0956 0 15.7935 0ZM7.97772 12.4504H11.3844V22.6859H7.97772V12.4504ZM11.6087 9.28405C11.5866 8.28046 10.869 7.51607 9.70356 7.51607C8.53817 7.51607 7.77628 8.28046 7.77628 9.28405C7.77628 10.2668 8.51566 11.0532 9.65934 11.0532H9.68111C10.869 11.0532 11.6087 10.2668 11.6087 9.28405ZM19.7477 12.21C21.9894 12.21 23.67 13.6732 23.67 16.8171L23.6699 22.6859H20.2634V17.2098C20.2634 15.8344 19.7704 14.8958 18.5372 14.8958C17.596 14.8958 17.0354 15.5285 16.7892 16.1397C16.6992 16.3587 16.6771 16.6639 16.6771 16.9698V22.6861H13.27C13.27 22.6861 13.3149 13.411 13.27 12.4506H16.6771V13.9004C17.1292 13.2034 17.939 12.21 19.7477 12.21Z" fill="white"/>
</svg>
