<svg width="30" height="30" viewBox="0 0 30 30" fill="none" xmlns="http://www.w3.org/2000/svg">
    <path fill-rule="evenodd" clip-rule="evenodd" d="M0.478271 14.8261C0.478271 6.90201 6.90201 0.478271 14.8261 0.478271C22.7502 0.478271 29.1739 6.90201 29.1739 14.8261C29.1739 22.7502 22.7502 29.1739 14.8261 29.1739C6.90201 29.1739 0.478271 22.7502 0.478271 14.8261Z" fill="#0077B5"/>
    <path fill-rule="evenodd" clip-rule="evenodd" d="M10.8318 9.33967C10.8107 8.38178 10.1257 7.65219 9.01336 7.65219C7.90103 7.65219 7.17383 8.38178 7.17383 9.33967C7.17383 10.2777 7.87954 11.0283 8.97115 11.0283H8.99193C10.1257 11.0283 10.8318 10.2777 10.8318 9.33967ZM10.6178 12.3618H7.36622V22.1313H10.6178V12.3618ZM18.6002 12.1324C20.7399 12.1324 22.344 13.529 22.344 16.5297L22.3438 22.1313H19.0924V16.9046C19.0924 15.5918 18.6219 14.6959 17.4449 14.6959C16.5466 14.6959 16.0115 15.2998 15.7765 15.8832C15.6905 16.0922 15.6694 16.3835 15.6694 16.6754V22.1315H12.4175C12.4175 22.1315 12.4604 13.2788 12.4175 12.362H15.6694V13.7458C16.101 13.0806 16.8739 12.1324 18.6002 12.1324Z" fill="white"/>
</svg>
