<svg width="31" height="31" viewBox="0 0 31 31" fill="none" xmlns="http://www.w3.org/2000/svg">
    <path fill-rule="evenodd" clip-rule="evenodd" d="M15.6194 0C7.31733 0 0.587158 6.73017 0.587158 15.0323C0.587158 23.3343 7.31733 30.0645 15.6194 30.0645C23.9215 30.0645 30.6517 23.3343 30.6517 15.0323C30.6517 6.73017 23.9215 0 15.6194 0ZM12.3144 7.06343C13.1695 7.02451 13.4428 7.01499 15.6202 7.01499H15.6177C17.7957 7.01499 18.0679 7.02451 18.9231 7.06343C19.7766 7.10251 20.3596 7.23764 20.8707 7.4359C21.3985 7.64051 21.8444 7.91443 22.2904 8.36039C22.7363 8.80602 23.0103 9.25332 23.2157 9.78062C23.4128 10.2904 23.5481 10.873 23.5882 11.7265C23.6266 12.5817 23.6366 12.8549 23.6366 15.0323C23.6366 17.2096 23.6266 17.4822 23.5882 18.3374C23.5481 19.1906 23.4128 19.7733 23.2157 20.2833C23.0103 20.8104 22.7363 21.2577 22.2904 21.7033C21.8449 22.1493 21.3983 22.4239 20.8712 22.6287C20.3611 22.8269 19.7778 22.962 18.9243 23.0011C18.0691 23.04 17.7967 23.0496 15.6192 23.0496C13.442 23.0496 13.1689 23.04 12.3137 23.0011C11.4604 22.962 10.8776 22.8269 10.3675 22.6287C9.84054 22.4239 9.39324 22.1493 8.94778 21.7033C8.50199 21.2577 8.22806 20.8104 8.02312 20.2831C7.82503 19.7733 7.6899 19.1907 7.65065 18.3372C7.6119 17.4821 7.60221 17.2096 7.60221 15.0323C7.60221 12.8549 7.61223 12.5815 7.65048 11.7263C7.6889 10.8731 7.82419 10.2904 8.02295 9.78045C8.22839 9.25332 8.50232 8.80602 8.94828 8.36039C9.39391 7.9146 9.84121 7.64067 10.3685 7.4359C10.8783 7.23764 11.4609 7.10251 12.3144 7.06343Z" fill="white"/>
    <path fill-rule="evenodd" clip-rule="evenodd" d="M14.9009 8.46001C15.0405 8.45979 15.1908 8.45986 15.3529 8.45993L15.6201 8.46001C17.7607 8.46001 18.0144 8.4677 18.8598 8.50611C19.6415 8.54186 20.0657 8.67247 20.3483 8.78221C20.7224 8.92752 20.9892 9.10123 21.2696 9.38183C21.5502 9.66244 21.7239 9.92968 21.8696 10.3038C21.9793 10.5861 22.1101 11.0103 22.1457 11.792C22.1841 12.6372 22.1925 12.8911 22.1925 15.0307C22.1925 17.1703 22.1841 17.4242 22.1457 18.2693C22.1099 19.051 21.9793 19.4753 21.8696 19.7575C21.7243 20.1317 21.5502 20.3981 21.2696 20.6785C20.989 20.9591 20.7226 21.1328 20.3483 21.2782C20.066 21.3884 19.6415 21.5187 18.8598 21.5544C18.0146 21.5928 17.7607 21.6012 15.6201 21.6012C13.4793 21.6012 13.2256 21.5928 12.3805 21.5544C11.5988 21.5183 11.1745 21.3877 10.8918 21.278C10.5176 21.1327 10.2504 20.959 9.96976 20.6784C9.68916 20.3978 9.51545 20.1312 9.3698 19.7569C9.26007 19.4746 9.12928 19.0503 9.09371 18.2687C9.05529 17.4235 9.04761 17.1696 9.04761 15.0287C9.04761 12.8877 9.05529 12.6352 9.09371 11.79C9.12945 11.0083 9.26007 10.5841 9.3698 10.3015C9.51512 9.92734 9.68916 9.6601 9.96976 9.37949C10.2504 9.09889 10.5176 8.92518 10.8918 8.77953C11.1744 8.6693 11.5988 8.53902 12.3805 8.50311C13.1201 8.4697 13.4067 8.45968 14.9009 8.45801V8.46001ZM19.8997 9.79118C19.3685 9.79118 18.9376 10.2216 18.9376 10.7529C18.9376 11.2841 19.3685 11.715 19.8997 11.715C20.4308 11.715 20.8617 11.2841 20.8617 10.7529C20.8617 10.2218 20.4308 9.79084 19.8997 9.79084V9.79118ZM11.5029 15.0325C11.5029 12.7589 13.3463 10.9154 15.6199 10.9153C17.8937 10.9153 19.7367 12.7588 19.7367 15.0325C19.7367 17.3063 17.8938 19.1489 15.6201 19.1489C13.3464 19.1489 11.5029 17.3063 11.5029 15.0325Z" fill="white"/>
    <path fill-rule="evenodd" clip-rule="evenodd" d="M15.6202 12.3599C17.096 12.3599 18.2926 13.5563 18.2926 15.0323C18.2926 16.5081 17.096 17.7047 15.6202 17.7047C14.1442 17.7047 12.9478 16.5081 12.9478 15.0323C12.9478 13.5563 14.1442 12.3599 15.6202 12.3599V12.3599Z" fill="white"/>
</svg>
