<svg width="160" height="50" viewBox="0 0 160 50" fill="none" xmlns="http://www.w3.org/2000/svg">
    <g clip-path="url(#clip0)">
        <path d="M43.2916 14.5962V35.2546L39.7444 32.2717C39.1148 33.425 38.3745 34.5145 37.5339 35.5248L43.2916 41.5372H49.5872V14.5962H43.2916Z" fill="white"/>
        <path d="M20.2856 0C9.0819 0 0 9.07221 0 20.264C0 28.705 5.16701 35.9387 12.5134 38.9852V50H18.8089V16.5373L31.2725 29.0722C28.6813 31.5433 25.3297 33.0666 21.7624 33.3944V40.4744C32.2759 39.7182 40.5713 30.9596 40.5713 20.264C40.5713 9.07221 31.4894 0 20.2856 0ZM18.8089 14.5963H12.5134V31.4441C10.0378 30.063 7.97614 28.0468 6.54147 25.6037C5.10681 23.1605 4.35112 20.379 4.35247 17.5466C4.35247 8.75621 11.4859 1.63043 20.2856 1.63043C29.0854 1.63043 36.2188 8.75621 36.2188 17.5466C36.2237 20.8685 35.1832 24.1078 33.2443 26.8067L18.8089 14.5963Z" fill="white"/>
        <path d="M59.1703 24.8892C57.7277 24.7458 56.6003 24.2652 55.7878 23.4474C54.9753 22.6296 54.5691 21.4492 54.5691 19.9063V19.5771C54.5691 17.8783 55.0541 16.6182 56.0241 15.7968C56.994 14.9754 58.2912 14.5649 59.9156 14.5654C61.5685 14.5654 62.8707 14.9736 63.822 15.7898C64.7733 16.6061 65.2485 17.8685 65.2474 19.5771V19.9063C65.2474 21.3379 64.8847 22.4477 64.1593 23.2355C63.4339 24.0232 62.4592 24.4891 61.2354 24.633V24.7471C61.3737 24.8065 61.4927 24.9033 61.5789 25.0266C61.6825 25.1648 61.8261 25.3773 62.0095 25.664L62.7999 26.9505C62.8045 26.9597 62.8063 26.9701 62.805 26.9803C62.8038 26.9905 62.7996 27.0001 62.7929 27.008C62.7875 27.0165 62.7801 27.0236 62.7712 27.0286C62.7624 27.0336 62.7525 27.0364 62.7424 27.0367H59.2449C59.2352 27.038 59.2253 27.037 59.2161 27.0339C59.2068 27.0307 59.1984 27.0255 59.1915 27.0186C59.1846 27.0117 59.1794 27.0033 59.1762 26.994C59.1731 26.9848 59.1721 26.975 59.1734 26.9653L59.1703 24.8892ZM62.8108 19.7921V19.6772C62.8108 18.6275 62.56 17.8304 62.0585 17.2859C61.5569 16.7414 60.8426 16.4694 59.9156 16.4699C59.0182 16.4699 58.3089 16.7445 57.7876 17.2937C57.2663 17.8429 57.0073 18.6374 57.0104 19.6772V19.7921C57.0104 20.8325 57.2694 21.6294 57.7876 22.1827C58.3057 22.736 59.0151 23.0129 59.9156 23.0134C60.8431 23.0134 61.5574 22.7391 62.0585 22.1904C62.5595 21.6418 62.8103 20.8423 62.8108 19.7921Z" fill="white"/>
        <path d="M77.8712 24.803H75.4781C75.4494 24.803 75.4253 24.779 75.4058 24.7316L74.6465 22.6555H69.959L69.2137 24.7316C69.195 24.779 69.1709 24.803 69.1422 24.803H66.7483C66.6916 24.803 66.6706 24.779 66.6916 24.7316L70.4168 14.7518C70.4355 14.7137 70.4596 14.6943 70.4883 14.6943H74.1413C74.1693 14.6943 74.1934 14.7137 74.2128 14.7518L77.9388 24.7316C77.9414 24.7357 77.9431 24.7403 77.9438 24.7451C77.9445 24.75 77.9441 24.7549 77.9428 24.7595C77.9415 24.7642 77.9392 24.7686 77.9361 24.7723C77.933 24.7761 77.9292 24.7791 77.9248 24.7813C77.9097 24.794 77.8909 24.8017 77.8712 24.803ZM72.869 17.744C72.6399 17.0282 72.5104 16.5605 72.4804 16.3411H72.1368C72.041 16.7608 71.907 17.2285 71.735 17.744L70.6189 20.8372H73.9874L72.869 17.744Z" fill="white"/>
        <path d="M80.1763 14.7655C80.175 14.7558 80.176 14.7459 80.1792 14.7367C80.1823 14.7274 80.1875 14.719 80.1944 14.7121C80.2014 14.7052 80.2098 14.7 80.219 14.6969C80.2283 14.6937 80.2381 14.6928 80.2478 14.694H83.1578C83.1691 14.6928 83.1806 14.6948 83.1908 14.6999C83.201 14.705 83.2095 14.7129 83.2153 14.7228L87.3602 21.5838H87.4753C87.4172 21.2238 87.3788 20.861 87.3602 20.4968C87.3416 20.1252 87.3323 19.6718 87.3323 19.1366V14.7655C87.3308 14.7558 87.3317 14.7458 87.3347 14.7365C87.3378 14.7272 87.3431 14.7187 87.35 14.7118C87.357 14.7048 87.3654 14.6996 87.3748 14.6965C87.3841 14.6935 87.394 14.6926 87.4038 14.694H89.6919C89.7017 14.6926 89.7116 14.6935 89.721 14.6966C89.7303 14.6997 89.7388 14.7049 89.7458 14.7118C89.7528 14.7187 89.7581 14.7272 89.7613 14.7365C89.7645 14.7458 89.7655 14.7557 89.7642 14.7655V24.7313C89.7655 24.7411 89.7645 24.751 89.7613 24.7603C89.7581 24.7696 89.7528 24.7781 89.7458 24.785C89.7388 24.7919 89.7303 24.7971 89.721 24.8002C89.7116 24.8033 89.7017 24.8041 89.6919 24.8027H86.7827C86.768 24.8025 86.7536 24.7985 86.7409 24.791C86.7283 24.7835 86.7178 24.7728 86.7105 24.76L82.5702 17.8571H82.4412C82.5166 18.2034 82.5645 18.5552 82.5842 18.9091C82.6039 19.258 82.6135 19.6948 82.6129 20.2197V24.7298C82.6142 24.7394 82.6132 24.7493 82.6101 24.7585C82.607 24.7678 82.6017 24.7762 82.5948 24.7831C82.5879 24.79 82.5795 24.7952 82.5702 24.7984C82.561 24.8015 82.5511 24.8025 82.5414 24.8012H80.2478C80.2381 24.8025 80.2283 24.8015 80.219 24.7984C80.2098 24.7952 80.2014 24.79 80.1944 24.7831C80.1875 24.7762 80.1823 24.7678 80.1792 24.7585C80.176 24.7493 80.175 24.7394 80.1763 24.7298V14.7655Z" fill="white"/>
        <path d="M92.9463 21.1956V14.7655C92.9451 14.7558 92.946 14.7459 92.9492 14.7367C92.9523 14.7274 92.9576 14.719 92.9645 14.7121C92.9714 14.7052 92.9798 14.7 92.989 14.6969C92.9983 14.6937 93.0082 14.6928 93.0179 14.694H95.3115C95.3212 14.6926 95.3311 14.6935 95.3404 14.6965C95.3498 14.6996 95.3582 14.7048 95.3652 14.7118C95.3721 14.7187 95.3774 14.7272 95.3805 14.7365C95.3835 14.7458 95.3844 14.7558 95.383 14.7655V20.722C95.383 21.5621 95.5695 22.1539 95.9426 22.4976C96.3156 22.8413 96.9462 23.0131 97.8343 23.0131C98.4463 23.0131 98.9287 22.9391 99.2815 22.7911C99.6179 22.6595 99.8903 22.403 100.042 22.0753C100.197 21.7461 100.274 21.295 100.271 20.722V14.7655C100.27 14.7558 100.271 14.7459 100.274 14.7367C100.277 14.7274 100.282 14.719 100.289 14.7121C100.296 14.7052 100.304 14.7 100.314 14.6969C100.323 14.6937 100.333 14.6928 100.342 14.694H102.636C102.646 14.6928 102.656 14.6937 102.665 14.6969C102.674 14.7 102.683 14.7052 102.689 14.7121C102.696 14.719 102.702 14.7274 102.705 14.7367C102.708 14.7459 102.709 14.7558 102.708 14.7655V21.1956C102.708 22.1314 102.524 22.8734 102.156 23.4215C101.788 23.9697 101.25 24.3579 100.543 24.5861C99.8357 24.8154 98.9328 24.9298 97.8343 24.9293C96.2099 24.9293 94.9892 24.65 94.172 24.0916C93.3549 23.5331 92.9463 22.5677 92.9463 21.1956Z" fill="white"/>
        <path d="M105.889 14.7655C105.887 14.7558 105.888 14.7458 105.891 14.7365C105.894 14.7272 105.899 14.7187 105.906 14.7118C105.913 14.7048 105.922 14.6996 105.931 14.6965C105.94 14.6935 105.95 14.6926 105.96 14.694H108.869C108.881 14.6927 108.892 14.6947 108.902 14.6998C108.913 14.7049 108.921 14.7129 108.927 14.7228L113.069 21.5815H113.184C113.125 21.2215 113.087 20.8587 113.069 20.4945C113.05 20.1229 113.041 19.6695 113.041 19.1343V14.7655C113.039 14.7558 113.04 14.7459 113.043 14.7367C113.047 14.7274 113.052 14.719 113.059 14.7121C113.066 14.7052 113.074 14.7 113.083 14.6969C113.093 14.6937 113.102 14.6928 113.112 14.694H115.406C115.415 14.6928 115.425 14.6937 115.435 14.6969C115.444 14.7 115.452 14.7052 115.459 14.7121C115.466 14.719 115.471 14.7274 115.474 14.7367C115.478 14.7459 115.479 14.7558 115.477 14.7655V24.7313C115.479 24.741 115.478 24.7508 115.474 24.7601C115.471 24.7693 115.466 24.7777 115.459 24.7846C115.452 24.7915 115.444 24.7968 115.435 24.7999C115.425 24.803 115.415 24.804 115.406 24.8027H112.496C112.481 24.8025 112.467 24.7985 112.454 24.791C112.442 24.7835 112.431 24.7728 112.424 24.76L108.282 17.8571H108.153C108.228 18.2034 108.276 18.5552 108.296 18.9091C108.315 19.258 108.325 19.6948 108.325 20.2197V24.7298C108.327 24.7395 108.326 24.7494 108.322 24.7588C108.319 24.7681 108.314 24.7765 108.307 24.7834C108.3 24.7904 108.291 24.7956 108.282 24.7986C108.273 24.8017 108.263 24.8026 108.253 24.8012H105.96C105.95 24.8026 105.94 24.8018 105.931 24.7987C105.922 24.7956 105.913 24.7904 105.906 24.7834C105.899 24.7765 105.894 24.768 105.891 24.7587C105.888 24.7494 105.887 24.7395 105.889 24.7298V14.7655Z" fill="white"/>
        <path d="M54.8559 31.4691C54.8546 31.4594 54.8556 31.4496 54.8587 31.4403C54.8619 31.4311 54.8671 31.4227 54.874 31.4158C54.8809 31.4088 54.8893 31.4036 54.8986 31.4005C54.9078 31.3973 54.9177 31.3964 54.9274 31.3977H57.8373C57.8487 31.3962 57.8602 31.3981 57.8705 31.4032C57.8807 31.4084 57.8892 31.4164 57.8948 31.4264L62.0375 38.2843H62.1517C62.0935 37.9244 62.0554 37.5615 62.0375 37.1973C62.0183 36.8247 62.0087 36.3713 62.0087 35.8371V31.4691C62.0073 31.4594 62.0081 31.4495 62.0112 31.4401C62.0143 31.4308 62.0195 31.4223 62.0265 31.4154C62.0334 31.4084 62.0419 31.4032 62.0512 31.4001C62.0606 31.3971 62.0705 31.3962 62.0802 31.3977H64.3738C64.3835 31.3964 64.3933 31.3973 64.4026 31.4005C64.4119 31.4036 64.4203 31.4088 64.4272 31.4158C64.4341 31.4227 64.4393 31.4311 64.4425 31.4403C64.4456 31.4496 64.4466 31.4594 64.4453 31.4691V41.4341C64.4467 41.4439 64.4458 41.4538 64.4428 41.4632C64.4397 41.4725 64.4345 41.481 64.4275 41.488C64.4206 41.495 64.4121 41.5003 64.4028 41.5035C64.3935 41.5067 64.3836 41.5076 64.3738 41.5063H61.4639C61.4492 41.506 61.4348 41.5018 61.4223 41.4942C61.4097 41.4865 61.3994 41.4757 61.3924 41.4629L57.2497 34.5615H57.1207C57.1962 34.9081 57.2441 35.2601 57.2637 35.6143C57.2834 35.9631 57.293 36.3997 57.2925 36.924V41.4341C57.2941 41.4439 57.2933 41.4539 57.2903 41.4633C57.2873 41.4728 57.2821 41.4814 57.2751 41.4884C57.2681 41.4954 57.2596 41.5007 57.2502 41.5038C57.2408 41.507 57.2308 41.5078 57.221 41.5063H54.9274C54.9176 41.5076 54.9077 41.5067 54.8984 41.5035C54.889 41.5003 54.8806 41.495 54.8736 41.488C54.8667 41.481 54.8615 41.4725 54.8584 41.4632C54.8553 41.4538 54.8545 41.4439 54.8559 41.4341V31.4691Z" fill="white"/>
        <path d="M80.4671 38.1412V37.7686C80.4658 37.7589 80.4668 37.749 80.4699 37.7398C80.4731 37.7305 80.4783 37.7221 80.4852 37.7152C80.4921 37.7083 80.5005 37.7031 80.5098 37.7C80.519 37.6968 80.5289 37.6959 80.5386 37.6971H82.8322C82.8419 37.6957 82.8519 37.6965 82.8612 37.6996C82.8705 37.7027 82.879 37.7079 82.8859 37.7149C82.8929 37.7218 82.8981 37.7303 82.9012 37.7396C82.9043 37.7489 82.9051 37.7588 82.9037 37.7686V38.1265C82.9037 38.6901 83.0902 39.1042 83.4633 39.3687C83.8364 39.6332 84.4716 39.7644 85.3691 39.7623C85.8579 39.7715 86.3467 39.7427 86.831 39.6762C87.1751 39.6187 87.4308 39.5067 87.5982 39.34C87.7653 39.1723 87.8492 38.9223 87.8492 38.5877V38.4161C87.8518 38.2848 87.8192 38.1552 87.7548 38.0407C87.6905 37.9261 87.5967 37.8309 87.4831 37.7647C87.2039 37.5928 86.8954 37.4738 86.573 37.4137C86.2103 37.3377 85.6896 37.2567 85.0108 37.1707C84.213 37.0729 83.4212 36.9319 82.6387 36.7484C82.0816 36.615 81.5652 36.3486 81.134 35.972C80.7194 35.604 80.5122 35.091 80.5122 34.4332V34.1179C80.5122 33.1345 80.9135 32.4137 81.7161 31.9557C82.5187 31.4976 83.7035 31.2686 85.2704 31.2686C86.9145 31.2686 88.1544 31.531 88.9902 32.0558C89.826 32.5807 90.2438 33.4492 90.2438 34.6614V34.9914C90.2453 35.0011 90.2444 35.011 90.2414 35.0203C90.2383 35.0297 90.233 35.0381 90.2261 35.0451C90.2191 35.052 90.2107 35.0572 90.2013 35.0603C90.192 35.0634 90.1821 35.0642 90.1723 35.0628H87.8935C87.8838 35.0642 87.8739 35.0634 87.8645 35.0603C87.8552 35.0572 87.8467 35.052 87.8398 35.0451C87.8328 35.0381 87.8276 35.0297 87.8245 35.0203C87.8214 35.011 87.8206 35.0011 87.822 34.9914V34.6909C87.822 34.1562 87.6285 33.76 87.2414 33.5023C86.8544 33.2445 86.2067 33.1151 85.2983 33.1141C83.7315 33.1141 82.948 33.4624 82.948 34.1591V34.3144C82.948 34.5437 83.0625 34.7248 83.2915 34.8578C83.5531 35.0045 83.8361 35.1093 84.1302 35.1684C84.4597 35.2398 84.9779 35.333 85.6846 35.4479C86.6976 35.5908 87.5026 35.7362 88.0995 35.8842C88.6635 36.0156 89.1904 36.2728 89.6407 36.6366C90.0703 36.9891 90.2853 37.4759 90.2858 38.097V38.7127C90.2858 39.81 89.8773 40.5711 89.0601 40.996C88.243 41.421 87.0127 41.6332 85.3691 41.6327C83.7156 41.6327 82.4856 41.3679 81.6788 40.8384C80.872 40.3089 80.4681 39.4099 80.4671 38.1412Z" fill="white"/>
        <path d="M100.611 41.5062C100.592 41.5089 100.572 41.5045 100.556 41.4939C100.541 41.4833 100.529 41.4673 100.524 41.4487C100.467 41.3152 100.438 41.0287 100.438 40.5893V39.3292C100.438 38.7469 100.278 38.3437 99.9585 38.1196C99.6388 37.8954 99.1393 37.7834 98.46 37.7834H95.6511V41.4324C95.6525 41.4422 95.6517 41.4521 95.6486 41.4615C95.6455 41.4708 95.6403 41.4793 95.6334 41.4863C95.6264 41.4933 95.618 41.4986 95.6086 41.5018C95.5993 41.505 95.5894 41.506 95.5796 41.5047H93.286C93.2763 41.506 93.2663 41.505 93.257 41.5018C93.2477 41.4986 93.2392 41.4933 93.2323 41.4863C93.2254 41.4793 93.2202 41.4708 93.2171 41.4615C93.214 41.4521 93.2131 41.4422 93.2145 41.4324V31.4689C93.2132 31.4593 93.2142 31.4494 93.2174 31.4402C93.2205 31.4309 93.2257 31.4225 93.2326 31.4156C93.2396 31.4087 93.248 31.4035 93.2572 31.4004C93.2665 31.3972 93.2763 31.3962 93.286 31.3975H99.0771C100.366 31.3975 101.307 31.5932 101.9 31.9845C102.493 32.3758 102.789 33.0298 102.789 33.9464V34.2469C102.789 34.9912 102.61 35.5828 102.251 36.0217C102.086 36.2326 101.88 36.4075 101.644 36.5356C101.409 36.6636 101.15 36.7421 100.883 36.7663V36.8665C101.466 36.9239 101.946 37.1309 102.323 37.4876C102.7 37.8442 102.889 38.3333 102.889 38.955V40.1149C102.879 40.5474 102.917 40.9798 103.004 41.4037C103.023 41.4697 102.999 41.5039 102.932 41.5039L100.611 41.5062ZM99.9438 33.552C99.6717 33.3564 99.2538 33.2585 98.6901 33.2585H95.6511V35.9216H98.8043C99.3225 35.9216 99.7096 35.8238 99.9655 35.6281C100.224 35.4325 100.354 35.111 100.354 34.6615V34.5334C100.353 34.0745 100.217 33.7484 99.9438 33.552Z" fill="white"/>
        <path d="M105.851 31.4688C105.849 31.4591 105.85 31.4493 105.853 31.44C105.856 31.4308 105.862 31.4224 105.869 31.4155C105.876 31.4086 105.884 31.4034 105.893 31.4002C105.902 31.3971 105.912 31.3961 105.922 31.3974H108.216C108.225 31.3959 108.235 31.3968 108.245 31.3999C108.254 31.403 108.262 31.4082 108.269 31.4151C108.276 31.4221 108.282 31.4305 108.285 31.4399C108.288 31.4492 108.289 31.4591 108.287 31.4688V41.4339C108.289 41.4436 108.288 41.4537 108.285 41.4631C108.282 41.4725 108.277 41.4811 108.27 41.4881C108.263 41.4952 108.254 41.5004 108.245 41.5036C108.235 41.5067 108.225 41.5076 108.216 41.5061H105.922C105.912 41.5074 105.902 41.5064 105.893 41.5032C105.884 41.5 105.875 41.4947 105.868 41.4878C105.861 41.4808 105.856 41.4722 105.853 41.4629C105.85 41.4536 105.849 41.4436 105.851 41.4339V31.4688ZM105.894 28.7343C105.893 28.7246 105.893 28.7147 105.897 28.7054C105.9 28.6961 105.905 28.6876 105.912 28.6807C105.919 28.6737 105.927 28.6685 105.937 28.6654C105.946 28.6623 105.956 28.6615 105.966 28.6629H108.158C108.168 28.6613 108.178 28.6621 108.187 28.6651C108.197 28.6681 108.205 28.6733 108.212 28.6803C108.219 28.6872 108.225 28.6958 108.228 28.7052C108.231 28.7146 108.232 28.7246 108.23 28.7343V30.4952C108.232 30.505 108.231 30.515 108.228 30.5244C108.225 30.5338 108.219 30.5423 108.212 30.5493C108.205 30.5562 108.197 30.5614 108.187 30.5644C108.178 30.5675 108.168 30.5682 108.158 30.5666H105.966C105.956 30.5681 105.946 30.5672 105.937 30.5641C105.927 30.5611 105.919 30.5558 105.912 30.5489C105.905 30.542 105.9 30.5335 105.897 30.5242C105.893 30.5148 105.893 30.5049 105.894 30.4952V28.7343Z" fill="white"/>
        <path d="M121.415 31.4689L117.158 38.7569L117.173 41.4339C117.174 41.4438 117.173 41.4538 117.17 41.4632C117.167 41.4726 117.162 41.4812 117.155 41.4882C117.148 41.4952 117.139 41.5005 117.13 41.5036C117.12 41.5067 117.11 41.5076 117.1 41.5062H114.807C114.798 41.5076 114.788 41.5067 114.778 41.5036C114.769 41.5005 114.76 41.4952 114.753 41.4882C114.746 41.4812 114.741 41.4726 114.738 41.4632C114.735 41.4538 114.734 41.4438 114.735 41.4339L114.721 38.7569L110.478 31.4689C110.474 31.4609 110.472 31.4516 110.473 31.4424C110.474 31.4333 110.479 31.4248 110.485 31.4184C110.492 31.4118 110.5 31.4065 110.508 31.4029C110.517 31.3993 110.526 31.3974 110.536 31.3975H113.001C113.03 31.3975 113.054 31.4161 113.073 31.4541L114.807 34.4332C115.078 34.8866 115.317 35.3576 115.524 35.8431C115.743 36.354 115.867 36.7334 115.896 36.9813H116.011C116.04 36.7432 116.164 36.3661 116.384 35.8501C116.59 35.3603 116.824 34.8823 117.083 34.4184L118.817 31.4541C118.837 31.4161 118.861 31.3975 118.889 31.3975H121.34C121.361 31.3981 121.381 31.4054 121.398 31.4184C121.402 31.4206 121.406 31.4236 121.409 31.4273C121.413 31.431 121.415 31.4354 121.417 31.4401C121.418 31.4448 121.419 31.4497 121.419 31.4547C121.418 31.4596 121.417 31.4645 121.415 31.4689Z" fill="white"/>
        <path d="M133.985 31.4689L129.729 38.7569L129.743 41.434C129.744 41.4437 129.743 41.4536 129.74 41.463C129.737 41.4723 129.732 41.4808 129.725 41.4878C129.718 41.4948 129.709 41.5001 129.7 41.5033C129.691 41.5065 129.681 41.5075 129.671 41.5062H127.377C127.368 41.5075 127.358 41.5065 127.348 41.5033C127.339 41.5001 127.331 41.4948 127.324 41.4878C127.317 41.4808 127.312 41.4723 127.309 41.463C127.305 41.4536 127.305 41.4437 127.306 41.434L127.292 38.7569L123.049 31.4689C123.044 31.4609 123.043 31.4516 123.044 31.4424C123.045 31.4333 123.049 31.4248 123.056 31.4184C123.063 31.4118 123.071 31.4065 123.079 31.4029C123.088 31.3993 123.097 31.3974 123.107 31.3975H125.572C125.6 31.3975 125.624 31.4161 125.643 31.4541L127.377 34.4332C127.648 34.8864 127.887 35.3575 128.094 35.8431C128.314 36.354 128.439 36.7334 128.467 36.9813H128.581C128.61 36.7432 128.735 36.3661 128.954 35.8501C129.161 35.3603 129.394 34.8823 129.654 34.4184L131.388 31.4541C131.407 31.4161 131.431 31.3975 131.459 31.3975H133.916C133.937 31.3981 133.957 31.4054 133.973 31.4184C133.981 31.4236 133.987 31.4317 133.99 31.4411C133.992 31.4506 133.99 31.4605 133.985 31.4689Z" fill="white"/>
        <path d="M144.934 41.5062H142.543C142.515 41.5062 142.491 41.4821 142.472 41.434L141.712 39.3586H137.025L136.28 41.434C136.26 41.4821 136.236 41.5062 136.208 41.5062H133.814C133.757 41.5062 133.737 41.4821 133.757 41.434L137.484 31.4541C137.502 31.4161 137.526 31.3975 137.555 31.3975H141.208C141.237 31.3975 141.26 31.4161 141.28 31.4541L145.01 41.434C145.015 41.4426 145.016 41.4528 145.013 41.4622C145.011 41.4717 145.004 41.4797 144.996 41.4844C144.978 41.4986 144.957 41.5063 144.934 41.5062ZM139.931 34.4472C139.702 33.7313 139.573 33.2637 139.543 33.0442H139.201C139.106 33.464 138.972 33.9316 138.8 34.4472L137.682 37.5395H141.05L139.931 34.4472Z" fill="white"/>
        <path d="M155.317 31.5116V33.1731C155.317 33.2507 155.293 33.2872 155.246 33.2872H151.432V41.434C151.434 41.4437 151.433 41.4536 151.43 41.463C151.427 41.4723 151.422 41.4808 151.415 41.4878C151.408 41.4948 151.399 41.5001 151.39 41.5033C151.381 41.5065 151.371 41.5075 151.361 41.5062H149.067C149.058 41.5075 149.048 41.5065 149.038 41.5033C149.029 41.5001 149.021 41.4948 149.014 41.4878C149.007 41.4808 149.002 41.4723 148.998 41.463C148.995 41.4536 148.994 41.4437 148.996 41.434V33.2872H145.198C145.141 33.2872 145.111 33.2492 145.111 33.1731V31.4836C145.112 31.4726 145.115 31.4617 145.12 31.4519C145.125 31.442 145.132 31.4332 145.141 31.4262C145.148 31.4177 145.156 31.4107 145.166 31.4058C145.176 31.4008 145.187 31.398 145.198 31.3975H155.246C155.256 31.3984 155.267 31.4022 155.275 31.4085C155.284 31.4148 155.291 31.4233 155.295 31.4332C155.31 31.4567 155.317 31.4839 155.317 31.5116Z" fill="white"/>
        <path d="M157.563 31.4691C157.562 31.4593 157.563 31.4494 157.566 31.4401C157.569 31.4308 157.575 31.4223 157.582 31.4154C157.589 31.4085 157.597 31.4033 157.607 31.4002C157.616 31.3971 157.626 31.3962 157.636 31.3977H159.928C159.938 31.3962 159.948 31.3971 159.957 31.4001C159.967 31.4032 159.975 31.4084 159.982 31.4154C159.989 31.4223 159.994 31.4308 159.998 31.4401C160.001 31.4495 160.001 31.4594 160 31.4691V41.4341C160.002 41.4439 160.001 41.4539 159.998 41.4633C159.995 41.4728 159.99 41.4814 159.983 41.4884C159.976 41.4954 159.967 41.5007 159.958 41.5038C159.948 41.507 159.938 41.5078 159.928 41.5063H157.636C157.626 41.5078 157.616 41.5069 157.606 41.5038C157.597 41.5007 157.588 41.4954 157.581 41.4884C157.574 41.4814 157.569 41.4728 157.566 41.4634C157.563 41.454 157.562 41.444 157.563 41.4341V31.4691Z" fill="white"/>
        <path d="M86.8216 44.145H83.8604L84.4479 42.0674H86.8216V44.145Z" fill="white"/>
        <path d="M76.4986 32.4643C75.5287 31.6579 74.1981 31.2544 72.5068 31.2539C71.4653 31.2539 70.5549 31.3996 69.7756 31.691C68.9963 31.9824 68.3945 32.4048 67.9701 32.9581C67.6768 33.3415 67.4798 33.7896 67.3958 34.2648H69.9917C70.1166 34.0481 70.2846 33.8592 70.4852 33.7097C70.9516 33.3515 71.6205 33.1726 72.492 33.1732C73.448 33.1732 74.1911 33.432 74.7211 33.9496C75.1097 34.323 75.3491 34.837 75.4548 35.4876H67.332V37.8579C67.332 38.6406 67.5447 39.316 67.9701 39.8843C68.3955 40.4527 68.9974 40.8869 69.7756 41.1871C70.5529 41.4879 71.4633 41.638 72.5068 41.6375C74.2074 41.6375 75.5403 41.2342 76.5056 40.4278C77.471 39.6214 77.9544 38.3349 77.9559 36.5684V36.3106C77.9559 34.5528 77.4702 33.2707 76.4986 32.4643ZM72.492 39.7159C71.6221 39.7159 70.9531 39.5275 70.4852 39.1507C70.0173 38.7738 69.7842 38.2989 69.7857 37.726V37.3378H75.4688C75.3693 38.021 75.1206 38.5564 74.7227 38.9441C74.1916 39.4591 73.448 39.7164 72.492 39.7159Z" fill="white"/>
    </g>
    <defs>
        <clipPath id="clip0">
            <rect width="160" height="50" fill="white"/>
        </clipPath>
    </defs>
</svg>
