<svg width="160" height="50" viewBox="0 0 160 50" fill="none" xmlns="http://www.w3.org/2000/svg">
    <g clip-path="url(#clip0)">
        <path d="M43.2916 14.5963V35.2547L39.7443 32.2717C39.1148 33.4251 38.3745 34.5146 37.5339 35.5249L43.2916 41.5373H49.5871V14.5963H43.2916Z" fill="#EC111D"/>
        <path d="M20.2856 0C9.0819 0 0 9.07221 0 20.264C0 28.705 5.16701 35.9387 12.5134 38.9852V50H18.8089V16.5373L31.2725 29.0722C28.6813 31.5433 25.3297 33.0666 21.7624 33.3944V40.4744C32.2759 39.7182 40.5713 30.9596 40.5713 20.264C40.5713 9.07221 31.4894 0 20.2856 0ZM18.8089 14.5963H12.5134V31.4441C10.0378 30.063 7.97614 28.0468 6.54147 25.6037C5.10681 23.1605 4.35112 20.379 4.35247 17.5466C4.35247 8.75621 11.4859 1.63043 20.2856 1.63043C29.0854 1.63043 36.2188 8.75621 36.2188 17.5466C36.2237 20.8685 35.1832 24.1078 33.2443 26.8067L18.8089 14.5963Z" fill="#EC111D"/>
        <path d="M59.1703 24.889C57.7278 24.7456 56.6003 24.265 55.7878 23.4472C54.9754 22.6294 54.5691 21.449 54.5691 19.9061V19.5769C54.5691 17.8781 55.0541 16.618 56.0241 15.7966C56.9941 14.9752 58.2913 14.5647 59.9157 14.5652C61.5686 14.5652 62.8707 14.9733 63.822 15.7896C64.7733 16.6058 65.2485 17.8683 65.2474 19.5769V19.9061C65.2474 21.3377 64.8847 22.4475 64.1593 23.2352C63.4339 24.023 62.4593 24.4889 61.2354 24.6328V24.7469C61.3738 24.8062 61.4928 24.9031 61.5789 25.0264C61.6826 25.1646 61.8261 25.3771 62.0095 25.6638L62.8 26.9503C62.8045 26.9595 62.8063 26.9699 62.805 26.9801C62.8038 26.9903 62.7996 26.9999 62.793 27.0078C62.7875 27.0163 62.7801 27.0234 62.7713 27.0284C62.7625 27.0334 62.7526 27.0362 62.7424 27.0365H59.2449C59.2352 27.0378 59.2254 27.0368 59.2161 27.0337C59.2069 27.0305 59.1985 27.0253 59.1915 27.0184C59.1846 27.0115 59.1794 27.0031 59.1763 26.9938C59.1731 26.9846 59.1721 26.9747 59.1734 26.9651L59.1703 24.889ZM62.8108 19.7919V19.677C62.8108 18.6273 62.5601 17.8302 62.0585 17.2857C61.5569 16.7412 60.8426 16.4692 59.9157 16.4697C59.0182 16.4697 58.3089 16.7443 57.7876 17.2935C57.2664 17.8426 57.0073 18.6372 57.0104 19.677V19.7919C57.0104 20.8323 57.2695 21.6291 57.7876 22.1825C58.3058 22.7358 59.0151 23.0127 59.9157 23.0132C60.8432 23.0132 61.5574 22.7389 62.0585 22.1902C62.5595 21.6416 62.8103 20.8421 62.8108 19.7919Z" fill="#EC111D"/>
        <path d="M77.8712 24.8028H75.4781C75.4493 24.8028 75.4252 24.7787 75.4058 24.7314L74.6465 22.6553H69.959L69.2136 24.7314C69.195 24.7787 69.1709 24.8028 69.1421 24.8028H66.7483C66.6915 24.8028 66.6705 24.7787 66.6915 24.7314L70.4168 14.7515C70.4354 14.7135 70.4595 14.6941 70.4883 14.6941H74.1413C74.1692 14.6941 74.1933 14.7135 74.2128 14.7515L77.9388 24.7314C77.9414 24.7355 77.9431 24.7401 77.9437 24.7449C77.9444 24.7497 77.9441 24.7546 77.9428 24.7593C77.9415 24.764 77.9392 24.7683 77.9361 24.7721C77.933 24.7758 77.9292 24.7789 77.9248 24.781C77.9097 24.7938 77.8909 24.8014 77.8712 24.8028ZM72.8689 17.7438C72.6399 17.0279 72.5104 16.5603 72.4803 16.3408H72.1368C72.0409 16.7606 71.907 17.2283 71.735 17.7438L70.6189 20.837H73.9874L72.8689 17.7438Z" fill="#EC111D"/>
        <path d="M80.1764 14.7655C80.1751 14.7558 80.1761 14.746 80.1793 14.7368C80.1824 14.7275 80.1876 14.7191 80.1945 14.7122C80.2014 14.7053 80.2099 14.7001 80.2191 14.6969C80.2284 14.6938 80.2382 14.6928 80.2479 14.6941H83.1579C83.1692 14.6928 83.1807 14.6949 83.1909 14.7C83.2011 14.7051 83.2096 14.713 83.2154 14.7228L87.3603 21.5839H87.4754C87.4172 21.2239 87.3788 20.861 87.3603 20.4969C87.3417 20.1253 87.3323 19.6718 87.3323 19.1366V14.7655C87.3309 14.7558 87.3318 14.7459 87.3348 14.7366C87.3379 14.7273 87.3432 14.7188 87.3501 14.7118C87.3571 14.7049 87.3655 14.6997 87.3749 14.6966C87.3842 14.6935 87.3941 14.6927 87.4039 14.6941H89.692C89.7018 14.6927 89.7117 14.6936 89.7211 14.6966C89.7304 14.6997 89.7389 14.7049 89.7459 14.7119C89.7529 14.7188 89.7582 14.7272 89.7614 14.7365C89.7646 14.7458 89.7656 14.7558 89.7643 14.7655V24.7314C89.7656 24.7411 89.7646 24.751 89.7614 24.7604C89.7582 24.7697 89.7529 24.7781 89.7459 24.785C89.7389 24.792 89.7304 24.7972 89.7211 24.8003C89.7117 24.8033 89.7018 24.8042 89.692 24.8028H86.7828C86.7681 24.8026 86.7537 24.7985 86.741 24.791C86.7284 24.7835 86.7179 24.7729 86.7106 24.7601L82.5703 17.8571H82.4413C82.5167 18.2035 82.5646 18.5553 82.5843 18.9092C82.604 19.258 82.6135 19.6949 82.613 20.2197V24.7298C82.6143 24.7395 82.6133 24.7493 82.6102 24.7586C82.607 24.7678 82.6018 24.7762 82.5949 24.7831C82.588 24.79 82.5796 24.7953 82.5703 24.7984C82.5611 24.8016 82.5512 24.8025 82.5415 24.8012H80.2479C80.2382 24.8025 80.2284 24.8016 80.2191 24.7984C80.2099 24.7953 80.2014 24.79 80.1945 24.7831C80.1876 24.7762 80.1824 24.7678 80.1793 24.7586C80.1761 24.7493 80.1751 24.7395 80.1764 24.7298V14.7655Z" fill="#EC111D"/>
        <path d="M92.9463 21.1957V14.7655C92.945 14.7558 92.946 14.746 92.9491 14.7368C92.9523 14.7275 92.9575 14.7191 92.9644 14.7122C92.9713 14.7053 92.9797 14.7001 92.989 14.6969C92.9982 14.6938 93.0081 14.6928 93.0178 14.6941H95.3114C95.3211 14.6927 95.331 14.6935 95.3404 14.6966C95.3497 14.6997 95.3582 14.7049 95.3651 14.7118C95.3721 14.7188 95.3773 14.7273 95.3804 14.7366C95.3835 14.7459 95.3843 14.7558 95.3829 14.7655V20.7221C95.3829 21.5621 95.5694 22.154 95.9425 22.4977C96.3156 22.8414 96.9462 23.0132 97.8343 23.0132C98.4462 23.0132 98.9286 22.9392 99.2815 22.7912C99.6179 22.6595 99.8903 22.403 100.042 22.0753C100.197 21.7461 100.273 21.295 100.271 20.7221V14.7655C100.27 14.7558 100.271 14.746 100.274 14.7368C100.277 14.7275 100.282 14.7191 100.289 14.7122C100.296 14.7053 100.304 14.7001 100.314 14.6969C100.323 14.6938 100.333 14.6928 100.342 14.6941H102.636C102.646 14.6928 102.656 14.6938 102.665 14.6969C102.674 14.7001 102.682 14.7053 102.689 14.7122C102.696 14.7191 102.701 14.7275 102.705 14.7368C102.708 14.746 102.709 14.7558 102.707 14.7655V21.1957C102.707 22.1315 102.524 22.8735 102.156 23.4216C101.788 23.9697 101.25 24.3579 100.543 24.5862C99.8356 24.8155 98.9327 24.9299 97.8343 24.9293C96.2099 24.9293 94.9891 24.6501 94.172 24.0916C93.3548 23.5331 92.9463 22.5678 92.9463 21.1957Z" fill="#EC111D"/>
        <path d="M105.889 14.7655C105.887 14.7558 105.888 14.7459 105.891 14.7366C105.894 14.7273 105.899 14.7188 105.906 14.7118C105.913 14.7049 105.922 14.6997 105.931 14.6966C105.941 14.6935 105.95 14.6927 105.96 14.6941H108.869C108.881 14.6927 108.892 14.6947 108.902 14.6998C108.913 14.7049 108.921 14.7129 108.927 14.7228L113.069 21.5815H113.184C113.125 21.2216 113.087 20.8587 113.069 20.4946C113.05 20.1229 113.041 19.6695 113.041 19.1343V14.7655C113.039 14.7558 113.04 14.746 113.044 14.7368C113.047 14.7275 113.052 14.7191 113.059 14.7122C113.066 14.7053 113.074 14.7001 113.083 14.6969C113.093 14.6938 113.102 14.6928 113.112 14.6941H115.406C115.415 14.6928 115.425 14.6938 115.435 14.6969C115.444 14.7001 115.452 14.7053 115.459 14.7122C115.466 14.7191 115.471 14.7275 115.474 14.7368C115.478 14.746 115.479 14.7558 115.477 14.7655V24.7314C115.479 24.7411 115.478 24.7509 115.474 24.7601C115.471 24.7694 115.466 24.7778 115.459 24.7847C115.452 24.7916 115.444 24.7968 115.435 24.8C115.425 24.8031 115.415 24.8041 115.406 24.8028H112.496C112.481 24.8026 112.467 24.7985 112.454 24.791C112.442 24.7835 112.431 24.7729 112.424 24.7601L108.282 17.8571H108.153C108.228 18.2035 108.277 18.5552 108.296 18.9092C108.315 19.258 108.325 19.6949 108.325 20.2197V24.7298C108.327 24.7396 108.326 24.7495 108.322 24.7588C108.319 24.7681 108.314 24.7766 108.307 24.7835C108.3 24.7904 108.291 24.7956 108.282 24.7987C108.273 24.8018 108.263 24.8027 108.253 24.8012H105.96C105.95 24.8027 105.941 24.8018 105.931 24.7988C105.922 24.7957 105.913 24.7905 105.906 24.7835C105.899 24.7766 105.894 24.7681 105.891 24.7588C105.888 24.7494 105.887 24.7395 105.889 24.7298V14.7655Z" fill="#EC111D"/>
        <path d="M54.8559 31.469C54.8546 31.4593 54.8556 31.4494 54.8588 31.4402C54.8619 31.4309 54.8671 31.4225 54.874 31.4156C54.8809 31.4087 54.8894 31.4035 54.8986 31.4004C54.9079 31.3972 54.9177 31.3963 54.9274 31.3975H57.8374C57.8487 31.3961 57.8603 31.398 57.8705 31.4031C57.8808 31.4082 57.8892 31.4163 57.8949 31.4263L62.0375 38.2842H62.1517C62.0935 37.9243 62.0554 37.5614 62.0375 37.1972C62.0183 36.8246 62.0087 36.3711 62.0087 35.837V31.469C62.0073 31.4592 62.0081 31.4493 62.0112 31.44C62.0143 31.4307 62.0195 31.4222 62.0265 31.4153C62.0334 31.4083 62.0419 31.4031 62.0513 31.4C62.0606 31.3969 62.0705 31.3961 62.0802 31.3975H64.3738C64.3835 31.3963 64.3934 31.3972 64.4026 31.4004C64.4119 31.4035 64.4203 31.4087 64.4272 31.4156C64.4341 31.4225 64.4394 31.4309 64.4425 31.4402C64.4456 31.4494 64.4466 31.4593 64.4453 31.469V41.434C64.4467 41.4438 64.4459 41.4537 64.4428 41.463C64.4397 41.4724 64.4345 41.4809 64.4276 41.4879C64.4206 41.4949 64.4122 41.5002 64.4029 41.5034C64.3935 41.5065 64.3836 41.5075 64.3738 41.5062H61.4639C61.4492 41.5059 61.4349 41.5017 61.4223 41.494C61.4098 41.4864 61.3995 41.4756 61.3924 41.4627L57.2498 34.5614H57.1207C57.1963 34.9079 57.2441 35.26 57.2638 35.6141C57.2835 35.963 57.293 36.3996 57.2925 36.9239V41.434C57.2941 41.4438 57.2933 41.4538 57.2903 41.4632C57.2873 41.4726 57.2821 41.4812 57.2751 41.4883C57.2682 41.4953 57.2596 41.5006 57.2502 41.5037C57.2408 41.5068 57.2308 41.5077 57.221 41.5062H54.9274C54.9177 41.5075 54.9077 41.5065 54.8984 41.5034C54.8891 41.5002 54.8806 41.4949 54.8737 41.4879C54.8668 41.4809 54.8615 41.4724 54.8585 41.463C54.8554 41.4537 54.8545 41.4438 54.8559 41.434V31.469Z" fill="#EC111D"/>
        <path d="M80.4671 38.1413V37.7686C80.4659 37.759 80.4668 37.7491 80.47 37.7399C80.4731 37.7306 80.4783 37.7222 80.4852 37.7153C80.4922 37.7084 80.5006 37.7032 80.5098 37.7001C80.5191 37.6969 80.5289 37.6959 80.5386 37.6972H82.8322C82.842 37.6958 82.8519 37.6966 82.8612 37.6997C82.8705 37.7028 82.879 37.708 82.886 37.715C82.8929 37.7219 82.8981 37.7304 82.9012 37.7397C82.9043 37.749 82.9052 37.7589 82.9037 37.7686V38.1266C82.9037 38.6902 83.0903 39.1043 83.4633 39.3688C83.8364 39.6333 84.4717 39.7645 85.3691 39.7624C85.8579 39.7716 86.3467 39.7428 86.8311 39.6763C87.1751 39.6188 87.4308 39.5067 87.5982 39.3401C87.7653 39.1724 87.8492 38.9224 87.8492 38.5877V38.4162C87.8518 38.2849 87.8192 38.1553 87.7549 38.0407C87.6905 37.9262 87.5967 37.831 87.4832 37.7648C87.204 37.5929 86.8954 37.4739 86.573 37.4138C86.2103 37.3377 85.6896 37.2567 85.0108 37.1708C84.213 37.0729 83.4212 36.932 82.6387 36.7485C82.0816 36.6151 81.5653 36.3487 81.134 35.9721C80.7195 35.6041 80.5122 35.0911 80.5122 34.4332V34.118C80.5122 33.1346 80.9135 32.4138 81.7161 31.9558C82.5187 31.4977 83.7035 31.2686 85.2704 31.2686C86.9145 31.2686 88.1544 31.5311 88.9902 32.0559C89.826 32.5808 90.2439 33.4493 90.2439 34.6615V34.9915C90.2453 35.0012 90.2445 35.0111 90.2414 35.0204C90.2383 35.0297 90.2331 35.0382 90.2261 35.0452C90.2192 35.0521 90.2107 35.0573 90.2014 35.0604C90.192 35.0635 90.1821 35.0643 90.1724 35.0629H87.8935C87.8838 35.0643 87.8739 35.0635 87.8646 35.0604C87.8552 35.0573 87.8467 35.0521 87.8398 35.0452C87.8328 35.0382 87.8276 35.0297 87.8245 35.0204C87.8215 35.0111 87.8206 35.0012 87.822 34.9915V34.691C87.822 34.1563 87.6285 33.7601 87.2414 33.5023C86.8544 33.2446 86.2067 33.1152 85.2984 33.1141C83.7315 33.1141 82.948 33.4625 82.948 34.1592V34.3145C82.948 34.5438 83.0626 34.7249 83.2916 34.8579C83.5531 35.0046 83.8361 35.1094 84.1302 35.1685C84.4597 35.2399 84.9779 35.3331 85.6847 35.448C86.6976 35.5909 87.5026 35.7363 88.0995 35.8843C88.6635 36.0157 89.1904 36.2729 89.6407 36.6367C90.0703 36.9891 90.2853 37.4759 90.2859 38.0971V38.7127C90.2859 39.8101 89.8773 40.5712 89.0602 40.9961C88.243 41.4211 87.0127 41.6333 85.3691 41.6328C83.7157 41.6328 82.4856 41.368 81.6788 40.8385C80.8721 40.309 80.4682 39.41 80.4671 38.1413Z" fill="#EC111D"/>
        <path d="M100.61 41.5062C100.592 41.5089 100.572 41.5045 100.556 41.4939C100.54 41.4833 100.529 41.4673 100.524 41.4487C100.467 41.3152 100.438 41.0287 100.438 40.5893V39.3292C100.438 38.7469 100.278 38.3437 99.9584 38.1196C99.6387 37.8954 99.1392 37.7834 98.4599 37.7834H95.651V41.4324C95.6524 41.4422 95.6515 41.4521 95.6485 41.4615C95.6454 41.4708 95.6402 41.4793 95.6332 41.4863C95.6263 41.4933 95.6179 41.4986 95.6085 41.5018C95.5992 41.505 95.5893 41.506 95.5795 41.5047H93.2859C93.2761 41.506 93.2662 41.505 93.2569 41.5018C93.2476 41.4986 93.2391 41.4933 93.2322 41.4863C93.2252 41.4793 93.22 41.4708 93.217 41.4615C93.2139 41.4521 93.213 41.4422 93.2144 41.4324V31.4689C93.2131 31.4593 93.2141 31.4494 93.2172 31.4402C93.2204 31.4309 93.2256 31.4225 93.2325 31.4156C93.2394 31.4087 93.2478 31.4035 93.2571 31.4004C93.2664 31.3972 93.2762 31.3962 93.2859 31.3975H99.077C100.366 31.3975 101.307 31.5932 101.9 31.9845C102.493 32.3758 102.789 33.0298 102.789 33.9464V34.2469C102.789 34.9912 102.61 35.5828 102.251 36.0217C102.086 36.2326 101.879 36.4075 101.644 36.5356C101.409 36.6636 101.149 36.7421 100.883 36.7663V36.8665C101.465 36.9239 101.946 37.1309 102.323 37.4876C102.7 37.8442 102.889 38.3333 102.889 38.955V40.1149C102.879 40.5474 102.917 40.9798 103.004 41.4037C103.023 41.4697 102.999 41.5039 102.932 41.5039L100.61 41.5062ZM99.9436 33.552C99.6716 33.3564 99.2537 33.2585 98.69 33.2585H95.651V35.9216H98.8042C99.3224 35.9216 99.7094 35.8238 99.9654 35.6281C100.223 35.4325 100.354 35.111 100.354 34.6615V34.5334C100.352 34.0745 100.216 33.7484 99.9436 33.552Z" fill="#EC111D"/>
        <path d="M105.851 31.4689C105.849 31.4593 105.85 31.4494 105.853 31.4402C105.857 31.4309 105.862 31.4225 105.869 31.4156C105.876 31.4087 105.884 31.4035 105.893 31.4003C105.903 31.3972 105.912 31.3962 105.922 31.3975H108.216C108.225 31.3961 108.235 31.3969 108.245 31.4C108.254 31.4031 108.262 31.4083 108.269 31.4152C108.276 31.4222 108.282 31.4307 108.285 31.44C108.288 31.4493 108.289 31.4592 108.287 31.4689V41.434C108.289 41.4438 108.288 41.4538 108.285 41.4632C108.282 41.4726 108.277 41.4812 108.27 41.4882C108.263 41.4953 108.254 41.5006 108.245 41.5037C108.235 41.5068 108.225 41.5077 108.216 41.5062H105.922C105.912 41.5075 105.902 41.5065 105.893 41.5033C105.884 41.5002 105.875 41.4949 105.868 41.4879C105.861 41.4809 105.856 41.4724 105.853 41.463C105.85 41.4537 105.849 41.4437 105.851 41.434V31.4689ZM105.894 28.7345C105.893 28.7248 105.894 28.7148 105.897 28.7055C105.9 28.6962 105.905 28.6877 105.912 28.6808C105.919 28.6738 105.927 28.6686 105.937 28.6655C105.946 28.6625 105.956 28.6616 105.966 28.663H108.158C108.168 28.6615 108.178 28.6622 108.187 28.6652C108.197 28.6682 108.205 28.6735 108.212 28.6804C108.219 28.6874 108.225 28.6959 108.228 28.7053C108.231 28.7147 108.232 28.7247 108.23 28.7345V30.4953C108.232 30.5051 108.231 30.5151 108.228 30.5245C108.225 30.5339 108.219 30.5424 108.212 30.5494C108.205 30.5563 108.197 30.5615 108.187 30.5646C108.178 30.5676 108.168 30.5683 108.158 30.5668H105.966C105.956 30.5682 105.946 30.5673 105.937 30.5643C105.927 30.5612 105.919 30.556 105.912 30.549C105.905 30.5421 105.9 30.5336 105.897 30.5243C105.894 30.515 105.893 30.505 105.894 30.4953V28.7345Z" fill="#EC111D"/>
        <path d="M121.415 31.469L117.158 38.757L117.172 41.434C117.174 41.4438 117.173 41.4538 117.17 41.4633C117.167 41.4727 117.161 41.4812 117.154 41.4882C117.147 41.4953 117.139 41.5005 117.129 41.5037C117.12 41.5068 117.11 41.5077 117.1 41.5062H114.807C114.798 41.5077 114.787 41.5068 114.778 41.5037C114.769 41.5005 114.76 41.4953 114.753 41.4882C114.746 41.4812 114.741 41.4727 114.738 41.4633C114.735 41.4538 114.734 41.4438 114.735 41.434L114.721 38.757L110.478 31.469C110.474 31.461 110.472 31.4517 110.473 31.4425C110.474 31.4334 110.479 31.4249 110.485 31.4185C110.492 31.4118 110.5 31.4065 110.508 31.4029C110.517 31.3993 110.526 31.3975 110.536 31.3975H113.001C113.03 31.3975 113.054 31.4162 113.073 31.4542L114.807 34.4332C115.078 34.8866 115.317 35.3577 115.524 35.8432C115.743 36.354 115.867 36.7334 115.896 36.9814H116.011C116.04 36.7433 116.164 36.3662 116.384 35.8502C116.59 35.3603 116.823 34.8824 117.083 34.4185L118.817 31.4542C118.836 31.4162 118.861 31.3975 118.889 31.3975H121.34C121.361 31.3981 121.381 31.4055 121.397 31.4185C121.402 31.4206 121.406 31.4237 121.409 31.4274C121.413 31.4311 121.415 31.4354 121.417 31.4401C121.418 31.4448 121.419 31.4498 121.419 31.4547C121.418 31.4597 121.417 31.4645 121.415 31.469Z" fill="#EC111D"/>
        <path d="M133.985 31.469L129.729 38.757L129.743 41.434C129.744 41.4438 129.743 41.4537 129.74 41.463C129.737 41.4724 129.732 41.4809 129.725 41.4879C129.718 41.4949 129.709 41.5002 129.7 41.5034C129.691 41.5065 129.681 41.5075 129.671 41.5062H127.377C127.368 41.5075 127.358 41.5065 127.348 41.5034C127.339 41.5002 127.331 41.4949 127.324 41.4879C127.317 41.4809 127.312 41.4724 127.308 41.463C127.305 41.4537 127.305 41.4438 127.306 41.434L127.292 38.757L123.049 31.469C123.044 31.461 123.043 31.4517 123.044 31.4425C123.045 31.4334 123.049 31.4249 123.056 31.4185C123.063 31.4118 123.071 31.4065 123.079 31.4029C123.088 31.3993 123.097 31.3975 123.107 31.3975H125.572C125.6 31.3975 125.624 31.4162 125.643 31.4542L127.377 34.4332C127.648 34.8865 127.887 35.3575 128.094 35.8432C128.314 36.354 128.439 36.7334 128.467 36.9814H128.581C128.61 36.7433 128.735 36.3662 128.954 35.8502C129.161 35.3603 129.394 34.8824 129.654 34.4185L131.388 31.4542C131.407 31.4162 131.431 31.3975 131.459 31.3975H133.916C133.937 31.3981 133.957 31.4055 133.973 31.4185C133.981 31.4236 133.987 31.4318 133.989 31.4412C133.992 31.4506 133.99 31.4606 133.985 31.469Z" fill="#EC111D"/>
        <path d="M144.934 41.5062H142.543C142.515 41.5062 142.491 41.4822 142.472 41.434L141.712 39.3587H137.025L136.28 41.434C136.26 41.4822 136.236 41.5062 136.208 41.5062H133.814C133.757 41.5062 133.737 41.4822 133.757 41.434L137.484 31.4542C137.502 31.4162 137.526 31.3975 137.555 31.3975H141.208C141.237 31.3975 141.26 31.4162 141.28 31.4542L145.01 41.434C145.015 41.4427 145.016 41.4528 145.013 41.4623C145.011 41.4718 145.004 41.4797 144.996 41.4845C144.978 41.4986 144.957 41.5063 144.934 41.5062ZM139.931 34.4472C139.702 33.7314 139.573 33.2637 139.543 33.0443H139.201C139.106 33.464 138.972 33.9317 138.8 34.4472L137.682 37.5396H141.05L139.931 34.4472Z" fill="#EC111D"/>
        <path d="M155.317 31.5117V33.1731C155.317 33.2508 155.293 33.2873 155.246 33.2873H151.433V41.434C151.434 41.4438 151.433 41.4537 151.43 41.463C151.427 41.4724 151.422 41.4809 151.415 41.4879C151.408 41.4949 151.399 41.5002 151.39 41.5034C151.381 41.5065 151.371 41.5075 151.361 41.5062H149.067C149.058 41.5075 149.048 41.5065 149.038 41.5034C149.029 41.5002 149.021 41.4949 149.014 41.4879C149.007 41.4809 149.002 41.4724 148.999 41.463C148.995 41.4537 148.995 41.4438 148.996 41.434V33.2873H145.198C145.141 33.2873 145.111 33.2492 145.111 33.1731V31.4837C145.112 31.4726 145.115 31.4618 145.12 31.4519C145.125 31.4421 145.132 31.4333 145.141 31.4262C145.148 31.4177 145.156 31.4108 145.166 31.4058C145.176 31.4009 145.187 31.398 145.198 31.3975H155.246C155.256 31.3984 155.267 31.4023 155.275 31.4085C155.284 31.4148 155.291 31.4234 155.295 31.4332C155.31 31.4568 155.317 31.484 155.317 31.5117Z" fill="#EC111D"/>
        <path d="M157.563 31.469C157.562 31.4592 157.563 31.4493 157.566 31.44C157.569 31.4307 157.575 31.4222 157.582 31.4153C157.589 31.4084 157.597 31.4032 157.607 31.4001C157.616 31.397 157.626 31.3961 157.636 31.3975H159.928C159.938 31.3961 159.948 31.3969 159.957 31.4C159.967 31.4031 159.975 31.4083 159.982 31.4153C159.989 31.4222 159.994 31.4307 159.998 31.44C160.001 31.4493 160.001 31.4592 160 31.469V41.434C160.002 41.4438 160.001 41.4538 159.998 41.4632C159.995 41.4726 159.99 41.4812 159.983 41.4883C159.976 41.4953 159.967 41.5006 159.958 41.5037C159.948 41.5068 159.938 41.5077 159.928 41.5062H157.636C157.626 41.5077 157.616 41.5068 157.606 41.5037C157.597 41.5005 157.588 41.4953 157.581 41.4883C157.574 41.4812 157.569 41.4727 157.566 41.4633C157.563 41.4538 157.562 41.4438 157.563 41.434V31.469Z" fill="#EC111D"/>
        <path d="M86.8217 44.1452H83.8605L84.4481 42.0676H86.8217V44.1452Z" fill="#EC111D"/>
        <path d="M76.4986 32.4643C75.5286 31.6579 74.198 31.2544 72.5067 31.2539C71.4653 31.2539 70.5549 31.3996 69.7756 31.691C68.9963 31.9824 68.3944 32.4048 67.9701 32.9581C67.6767 33.3414 67.4797 33.7895 67.3957 34.2647H69.9916C70.1166 34.0481 70.2845 33.8591 70.4852 33.7096C70.9515 33.3514 71.6204 33.1726 72.492 33.1731C73.448 33.1731 74.191 33.4319 74.7211 33.9495C75.1097 34.323 75.3491 34.837 75.4548 35.4876H67.332V37.8579C67.332 38.6405 67.5447 39.316 67.9701 39.8843C68.3955 40.4526 68.9973 40.8869 69.7756 41.1871C70.5528 41.4878 71.4632 41.6379 72.5067 41.6374C74.2073 41.6374 75.5403 41.2342 76.5056 40.4278C77.4709 39.6214 77.9543 38.3349 77.9559 36.5683V36.3106C77.9559 34.5528 77.4701 33.2707 76.4986 32.4643ZM72.492 39.7158C71.622 39.7158 70.9531 39.5274 70.4852 39.1506C70.0173 38.7738 69.7841 38.2989 69.7857 37.7259V37.3377H75.4688C75.3693 38.021 75.1206 38.5564 74.7226 38.9441C74.1915 39.4591 73.448 39.7164 72.492 39.7158Z" fill="#EC111D"/>
    </g>
    <defs>
        <clipPath id="clip0">
            <rect width="160" height="50" fill="white"/>
        </clipPath>
    </defs>
</svg>
