<svg width="29" height="29" viewBox="0 0 29 29" fill="none" xmlns="http://www.w3.org/2000/svg">
    <path fill-rule="evenodd" clip-rule="evenodd" d="M14.3478 28.6957C22.2719 28.6957 28.6957 22.2719 28.6957 14.3478C28.6957 6.42374 22.2719 0 14.3478 0C6.42374 0 0 6.42374 0 14.3478C0 22.2719 6.42374 28.6957 14.3478 28.6957Z" fill="#0971BD"/>
    <path fill-rule="evenodd" clip-rule="evenodd" d="M14.5477 13.5426C13.4268 13.5426 7.65213 10.2679 7.65213 10.2679V9.75653C7.65213 9.12293 8.16636 8.6087 8.8011 8.6087H20.2943C20.9296 8.6087 21.4438 9.12293 21.4438 9.75653L21.4347 10.3304C21.4347 10.3304 15.7225 13.5426 14.5477 13.5426ZM14.5477 15.1209C15.7764 15.1209 21.4346 12.0522 21.4346 12.0522L21.4438 18.9392C21.4438 19.5728 20.9296 20.087 20.2943 20.087H8.80107C8.1669 20.087 7.6521 19.5728 7.6521 18.9392L7.66128 12.0522C7.66071 12.0522 13.4268 15.1209 14.5477 15.1209Z" fill="white"/>
</svg>
