<svg width="31" height="31" viewBox="0 0 31 31" fill="none" xmlns="http://www.w3.org/2000/svg">
    <path fill-rule="evenodd" clip-rule="evenodd" d="M15.2066 0C6.90449 0 0.174316 6.73017 0.174316 15.0323C0.174316 23.3343 6.90449 30.0645 15.2066 30.0645C23.5087 30.0645 30.2388 23.3343 30.2388 15.0323C30.2388 6.73017 23.5087 0 15.2066 0ZM14.7879 12.7385L14.7564 12.2183C14.6617 10.8702 15.4924 9.63883 16.8067 9.16114C17.2904 8.99129 18.1106 8.97006 18.6468 9.11868C18.8571 9.18237 19.2567 9.39467 19.5406 9.58575L20.0558 9.93605L20.6236 9.75559C20.939 9.66006 21.3596 9.50083 21.5489 9.39467C21.7276 9.29914 21.8854 9.24606 21.8854 9.2779C21.8854 9.45836 21.4963 10.0741 21.1704 10.4137C20.7287 10.8914 20.8549 10.9339 21.7487 10.6154C22.2849 10.435 22.2954 10.435 22.1903 10.6367C22.1272 10.7428 21.8012 11.1144 21.4543 11.454C20.8654 12.0379 20.8339 12.1016 20.8339 12.5899C20.8339 13.3436 20.4764 14.9146 20.1189 15.7745C19.4565 17.388 18.037 19.0546 16.6175 19.8932C14.6197 21.0715 11.9594 21.3687 9.71979 20.6787C8.97324 20.4452 7.69044 19.8507 7.69044 19.7446C7.69044 19.7128 8.07949 19.6703 8.55265 19.6597C9.54104 19.6384 10.5294 19.3624 11.3706 18.8741L11.9384 18.5345L11.2865 18.3115C10.3612 17.9931 9.53053 17.2606 9.32023 16.5706C9.25714 16.3477 9.27817 16.3371 9.867 16.3371L10.4769 16.3265L9.96163 16.0823C9.35178 15.7745 8.79449 15.2543 8.52111 14.7236C8.32133 14.3414 8.06898 13.3754 8.14258 13.3011C8.16361 13.2693 8.38442 13.333 8.63677 13.4179C9.36229 13.6833 9.45692 13.6196 9.03633 13.1737C8.24773 12.367 8.00589 11.1674 8.38442 10.0316L8.56317 9.52206L9.25714 10.2121C10.6766 11.6027 12.3485 12.4307 14.2622 12.6748L14.7879 12.7385Z" fill="white"/>
</svg>
