<svg width="30" height="30" viewBox="0 0 30 30" fill="none" xmlns="http://www.w3.org/2000/svg">
    <path fill-rule="evenodd" clip-rule="evenodd" d="M0.739258 14.8261C0.739258 6.90201 7.163 0.478271 15.0871 0.478271C23.0112 0.478271 29.4349 6.90201 29.4349 14.8261C29.4349 22.7502 23.0112 29.1739 15.0871 29.1739C7.163 29.1739 0.739258 22.7502 0.739258 14.8261Z" fill="#55ACEE"/>
    <path fill-rule="evenodd" clip-rule="evenodd" d="M14.6573 12.1404L14.6874 12.6368L14.1856 12.576C12.359 12.343 10.7633 11.5527 9.40845 10.2254L8.74607 9.56685L8.57546 10.0532C8.21417 11.1373 8.44499 12.2822 9.19769 13.0523C9.59914 13.4778 9.50881 13.5386 8.81633 13.2853C8.57546 13.2042 8.36471 13.1434 8.34463 13.1738C8.27438 13.2448 8.51525 14.1668 8.70593 14.5315C8.96687 15.0381 9.49878 15.5346 10.0809 15.8284L10.5726 16.0614L9.99054 16.0716C9.42852 16.0716 9.40845 16.0817 9.46867 16.2945C9.66939 16.9531 10.4622 17.6522 11.3454 17.9561L11.9676 18.1689L11.4257 18.4931C10.6228 18.9592 9.67942 19.2226 8.73604 19.2429C8.28442 19.253 7.91309 19.2936 7.91309 19.3239C7.91309 19.4253 9.13748 19.9927 9.85004 20.2156C11.9877 20.8741 14.5268 20.5904 16.4337 19.4658C17.7885 18.6654 19.1434 17.0746 19.7756 15.5346C20.1169 14.7139 20.4581 13.2144 20.4581 12.495C20.4581 12.0289 20.4882 11.9681 21.0502 11.4109C21.3814 11.0866 21.6925 10.732 21.7527 10.6307C21.8531 10.4382 21.8431 10.4382 21.3312 10.6104C20.4782 10.9144 20.3577 10.8739 20.7792 10.4179C21.0904 10.0937 21.4617 9.50606 21.4617 9.33381C21.4617 9.30342 21.3112 9.35408 21.1405 9.44526C20.9599 9.54658 20.5585 9.69856 20.2574 9.78975L19.7154 9.962L19.2237 9.62764C18.9527 9.44526 18.5713 9.24263 18.3706 9.18183C17.8588 9.03999 17.076 9.06025 16.6143 9.22236C15.3598 9.6783 14.567 10.8536 14.6573 12.1404Z" fill="white"/>
</svg>
