<svg width="26" height="16" viewBox="0 0 26 16" fill="none" xmlns="http://www.w3.org/2000/svg">
<path d="M25.7094 7.21908C25.8969 7.43657 26 7.71356 26 8C26 8.28644 25.8969 8.56343 25.7094 8.78092C23.9834 10.7932 18.9455 16 13 16C7.0545 16 2.01531 10.7932 0.290597 8.78092C0.103075 8.56343 0 8.28644 0 8C0 7.71356 0.103075 7.43657 0.290597 7.21908C2.01531 5.20677 7.05388 0 13 0C18.9461 0 23.9834 5.20677 25.7094 7.21908ZM13 14.1538C17.8479 14.1538 22.2414 9.87323 23.929 8C22.2414 6.12677 17.8479 1.84615 13 1.84615C8.1521 1.84615 3.75922 6.12677 2.07103 8C3.7586 9.87323 8.15148 14.1538 13 14.1538ZM13 10.1538C11.8052 10.1538 10.8333 9.18769 10.8333 8C10.8333 6.81231 11.8052 5.84615 13 5.84615C14.1948 5.84615 15.1667 6.81231 15.1667 8C15.1667 9.18769 14.1948 10.1538 13 10.1538ZM13 4C11.9332 4.0013 10.9105 4.42315 10.1561 5.17301C9.40176 5.92287 8.97739 6.93953 8.97608 8C8.97608 10.2055 10.7813 12 13 12C15.2187 12 17.0239 10.2055 17.0239 8C17.0239 5.79446 15.2187 4 13 4Z" fill="black"/>
</svg>
