<svg width="31" height="31" viewBox="0 0 31 31" fill="none" xmlns="http://www.w3.org/2000/svg">
    <path fill-rule="evenodd" clip-rule="evenodd" d="M30.4129 15.0323C30.4129 23.3343 23.6827 30.0645 15.3806 30.0645C7.07856 30.0645 0.348389 23.3343 0.348389 15.0323C0.348389 6.73017 7.07856 0 15.3806 0C23.6827 0 30.4129 6.73017 30.4129 15.0323ZM15.8724 23.3955H15.8761C20.8045 23.3935 24.8128 19.3842 24.8147 14.4569C24.8157 12.0685 23.8868 9.82278 22.1992 8.13327C20.5115 6.44368 18.2672 5.5128 15.876 5.51177C10.9491 5.51177 6.93927 9.52143 6.93731 14.4498C6.93664 16.0253 7.34824 17.563 8.13047 18.9186L6.86237 23.5505L11.6009 22.3075C12.9065 23.0196 14.3764 23.3949 15.8724 23.3955Z" fill="white"/>
    <path fill-rule="evenodd" clip-rule="evenodd" d="M12.0917 20.8502L11.8205 20.6892L9.00856 21.4268L9.75909 18.6853L9.58245 18.4042C8.83875 17.2213 8.44596 15.8541 8.44653 14.4503C8.44816 10.3541 11.781 7.02148 15.8791 7.02148C17.8635 7.02217 19.7289 7.79593 21.1316 9.20025C22.5343 10.6046 23.3063 12.4712 23.3055 14.4563C23.3039 18.5529 19.9711 21.8858 15.8762 21.8858H15.8732C14.54 21.8853 13.2324 21.5271 12.0917 20.8502ZM20.0735 16.3813C20.2293 16.4566 20.3345 16.5075 20.3794 16.5824C20.4352 16.6756 20.4352 17.1227 20.2492 17.6445C20.063 18.1662 19.1707 18.6424 18.7416 18.7065C18.3568 18.764 17.8698 18.788 17.3348 18.618C17.0104 18.5151 16.5944 18.3776 16.0616 18.1475C13.9677 17.2434 12.5527 15.214 12.2853 14.8305C12.2666 14.8036 12.2535 14.7848 12.2462 14.7751L12.2444 14.7727C12.1262 14.615 11.3342 13.5583 11.3342 12.4646C11.3342 11.4358 11.8395 10.8966 12.0722 10.6484C12.0881 10.6314 12.1028 10.6157 12.1159 10.6014C12.3206 10.3778 12.5626 10.3219 12.7115 10.3219C12.8603 10.3219 13.0094 10.3233 13.1395 10.3298C13.1556 10.3306 13.1723 10.3305 13.1896 10.3304C13.3197 10.3296 13.482 10.3287 13.642 10.7132C13.7036 10.8612 13.7937 11.0805 13.8888 11.3119C14.081 11.7798 14.2933 12.2968 14.3307 12.3716C14.3865 12.4834 14.4237 12.6138 14.3493 12.7629C14.3381 12.7852 14.3278 12.8063 14.3179 12.8265C14.262 12.9407 14.2209 13.0246 14.1259 13.1354C14.0886 13.179 14.0501 13.226 14.0115 13.273C13.9347 13.3665 13.8578 13.4601 13.7909 13.5267C13.6791 13.6381 13.5627 13.759 13.693 13.9826C13.8233 14.2062 14.2715 14.9375 14.9355 15.5298C15.6492 16.1664 16.2695 16.4355 16.584 16.5719C16.6454 16.5985 16.6951 16.6201 16.7316 16.6383C16.9549 16.7502 17.0852 16.7315 17.2155 16.5824C17.3458 16.4334 17.7738 15.9302 17.9227 15.7067C18.0715 15.4832 18.2205 15.5204 18.4252 15.5949C18.6299 15.6695 19.728 16.2098 19.9513 16.3215C19.995 16.3434 20.0357 16.3631 20.0735 16.3813Z" fill="white"/>
</svg>
