<svg width="29" height="30" viewBox="0 0 29 30" fill="none" xmlns="http://www.w3.org/2000/svg">
    <path fill-rule="evenodd" clip-rule="evenodd" d="M14.5651 29.1739C22.4892 29.1739 28.9129 22.7502 28.9129 14.8261C28.9129 6.90201 22.4892 0.478271 14.5651 0.478271C6.64103 0.478271 0.217285 6.90201 0.217285 14.8261C0.217285 22.7502 6.64103 29.1739 14.5651 29.1739Z" fill="#25D366"/>
    <path fill-rule="evenodd" clip-rule="evenodd" d="M15.0379 22.8086H15.0344C13.6065 22.8081 12.2035 22.4498 10.9573 21.7701L6.43457 22.9565L7.64494 18.5355C6.89832 17.2416 6.50546 15.7739 6.5061 14.2703C6.50797 9.56623 10.3353 5.73914 15.0378 5.73914C17.3202 5.74012 19.4623 6.62862 21.0731 8.24128C22.6838 9.85386 23.5704 11.9974 23.5695 14.277C23.5677 18.9799 19.7419 22.8067 15.0379 22.8086ZM11.1668 20.2256L11.4257 20.3793C12.5145 21.0254 13.7625 21.3672 15.035 21.3677H15.0379C18.9463 21.3677 22.1274 18.1866 22.1289 14.2765C22.1297 12.3817 21.3928 10.6001 20.054 9.25973C18.7151 7.91935 16.9347 7.18082 15.0406 7.18016C11.1292 7.18016 7.94805 10.361 7.9465 14.2708C7.94595 15.6107 8.32086 16.9156 9.03069 18.0446L9.1993 18.3129L8.48293 20.9296L11.1668 20.2256ZM19.3361 16.3058C19.2828 16.2169 19.1407 16.1635 18.9275 16.0568C18.7143 15.9501 17.6663 15.4344 17.4708 15.3632C17.2754 15.2921 17.1333 15.2566 16.9912 15.4699C16.8491 15.6833 16.4405 16.1635 16.3162 16.3058C16.1918 16.448 16.0675 16.4659 15.8544 16.3592C15.6412 16.2525 14.9543 16.0274 14.14 15.3011C13.5063 14.7358 13.0785 14.0377 12.9541 13.8243C12.8298 13.6109 12.9408 13.4955 13.0476 13.3892C13.1435 13.2937 13.2608 13.1402 13.3673 13.0158C13.4739 12.8913 13.5095 12.8023 13.5805 12.6602C13.6516 12.5178 13.616 12.3934 13.5627 12.2867C13.5095 12.18 13.0831 11.1306 12.9055 10.7038C12.7324 10.2881 12.5567 10.3444 12.4258 10.3379C12.3016 10.3316 12.1594 10.3303 12.0173 10.3303C11.8752 10.3303 11.6442 10.3837 11.4488 10.5971C11.2534 10.8105 10.7027 11.3263 10.7027 12.3755C10.7027 13.4248 11.4665 14.4385 11.5731 14.5807C11.6797 14.7231 13.0763 16.8762 15.2148 17.7996C15.7234 18.0193 16.1205 18.1504 16.4301 18.2487C16.9408 18.411 17.4056 18.3881 17.7728 18.3332C18.1824 18.272 19.0341 17.8175 19.2118 17.3196C19.3893 16.8215 19.3893 16.3947 19.3361 16.3058Z" fill="#FDFDFD"/>
</svg>
