<svg width="31" height="31" viewBox="0 0 31 31" fill="none" xmlns="http://www.w3.org/2000/svg">
    <path fill-rule="evenodd" clip-rule="evenodd" d="M15.9678 0C7.66572 0 0.935547 6.73017 0.935547 15.0323C0.935547 23.3343 7.66572 30.0645 15.9678 30.0645C24.2699 30.0645 31.0001 23.3343 31.0001 15.0323C31.0001 6.73017 24.2699 0 15.9678 0ZM22.2322 9.86444C22.9222 10.0538 23.4655 10.6116 23.6499 11.32C23.985 12.6039 23.985 15.2827 23.985 15.2827C23.985 15.2827 23.985 17.9615 23.6499 19.2455C23.4655 19.9539 22.9222 20.5117 22.2322 20.7011C20.9819 21.0451 15.9678 21.0451 15.9678 21.0451C15.9678 21.0451 10.9537 21.0451 9.70327 20.7011C9.01333 20.5117 8.46999 19.9539 8.28559 19.2455C7.9506 17.9615 7.9506 15.2827 7.9506 15.2827C7.9506 15.2827 7.9506 12.6039 8.28559 11.32C8.46999 10.6116 9.01333 10.0538 9.70327 9.86444C10.9537 9.52037 15.9678 9.52037 15.9678 9.52037C15.9678 9.52037 20.9819 9.52037 22.2322 9.86444Z" fill="white"/>
    <path fill-rule="evenodd" clip-rule="evenodd" d="M14.4646 18.0386V13.0278L18.4732 15.5333L14.4646 18.0386Z" fill="white"/>
</svg>
